<svg xmlns="http://www.w3.org/2000/svg" xmlns:xlink="http://www.w3.org/1999/xlink" version="1.1" id="Layer_1" x="0px" y="0px" viewBox="0 0 66.25 13" enable-background="new 0 0 265 52" xml:space="preserve" width="100%" height="100%"  preserveAspectRatio="xMidYMid meet" onload=""><rect id="svgEditorBackground" x="0" y="0" width="265" height="52" style="fill:none;stroke:none;"/><defs id="svgEditorDefs"><path id="svgEditorClosePathDefs" style="stroke:black;stroke-width:1px;fill:rosybrown;"/></defs>

<path fill="#3CB371" d="M47.131,32.565c-0.244,0.367,-0.489,0.733,-0.818,1.06c-0.285,0.288,-0.611,0.573,-0.98,0.859c-0.367,0.244,-0.775,0.448,-1.183,0.611c-0.41,0.163,-0.858,0.244,-1.267,0.326c-1.185,0.329,-2.369,0.451,-3.595,0.451c-0.655,0,-0.859,0.163,-0.859,0.815c0,1.551,-0.204,3.063,-0.652,4.53c-0.125,0.41,-0.247,0.818,-0.451,1.185c-0.203,0.408,-0.407,0.774,-0.652,1.104c-0.247,0.367,-0.532,0.693,-0.858,0.979c-0.285,0.326,-0.655,0.57,-0.981,0.815c-0.366,0.247,-0.733,0.451,-1.144,0.655c-0.367,0.163,-0.774,0.325,-1.226,0.407c-0.408,0.123,-0.815,0.163,-1.267,0.204c-0.407,0.041,-0.856,0.041,-1.267,0c-0.448,-0.041,-0.856,-0.081,-1.226,-0.163c-0.408,-0.123,-0.815,-0.245,-1.185,-0.367c-0.408,-0.163,-0.775,-0.366,-1.101,-0.57c-0.37,-0.247,-0.696,-0.491,-1.022,-0.736c-0.288,-0.285,-0.573,-0.571,-0.858,-0.897c-0.245,-0.326,-0.489,-0.695,-0.655,-1.063c-0.203,-0.326,-0.366,-0.733,-0.53,-1.101c-0.122,-0.41,-0.244,-0.818,-0.285,-1.226c-0.244,-1.186,-0.285,-2.408,-0.163,-3.634c0.082,-1.226,0.367,-2.408,0.775,-3.593c0.163,-0.327,0.287,-0.733,0.287,-1.102c-0.287,-0.041,-0.532,-0.081,-0.777,-0.081c-0.285,0,-0.529,0,-0.776,0.04c-0.286,0.041,-0.53,0.123,-0.775,0.205c-0.244,0.081,-0.491,0.204,-0.695,0.326c-0.245,0.121,-0.448,0.284,-0.652,0.448c-0.206,0.203,-0.369,0.367,-0.532,0.57c-0.163,0.207,-0.326,0.451,-0.449,0.655c-0.122,0.245,-0.203,0.489,-0.285,0.733c-0.328,0.899,-0.532,1.838,-0.613,2.818c-0.041,0.938,0,1.879,0.203,2.857c0.082,0.57,0.041,0.898,-0.652,1.021c-0.41,0.042,-0.817,0.123,-1.226,0.123c-0.367,0.04,-0.777,0.04,-1.185,0c-0.408,-0.041,-0.818,-0.081,-1.226,-0.163c-0.367,-0.122,-0.777,-0.206,-1.145,-0.37c-0.367,-0.122,-0.736,-0.285,-1.104,-0.488c-0.366,-0.204,-0.692,-0.408,-1.021,-0.653c-0.326,-0.203,-0.652,-0.488,-0.938,-0.735c-0.288,-0.286,-0.573,-0.611,-0.818,-0.897c-0.285,-0.326,-0.489,-0.652,-0.736,-0.98c-0.204,-0.326,-0.408,-0.653,-0.571,-1.02c-0.162,-0.367,-0.325,-0.734,-0.448,-1.145c-0.125,-0.367,-0.206,-0.733,-0.288,-1.142c-0.081,-0.407,-0.122,-0.777,-0.122,-1.185c-0.041,-0.407,-0.041,-0.815,0,-1.223c0.041,-0.37,0.122,-0.777,0.204,-1.186c0.081,-0.367,0.206,-0.734,0.369,-1.144c0.163,-0.531,0.408,-0.612,0.897,-0.408c0.695,0.326,1.389,0.529,2.166,0.571c0.736,0.081,1.47,0,2.206,-0.204c0.327,-0.082,0.612,-0.204,0.9,-0.367c0.285,-0.163,0.57,-0.326,0.814,-0.571c0.245,-0.203,0.492,-0.448,0.655,-0.695c0.204,-0.286,0.367,-0.57,0.53,-0.856c0.244,-0.571,0.122,-0.816,-0.571,-0.856c-1.636,-0.041,-3.229,-0.329,-4.78,-0.858c-0.367,-0.082,-0.695,-0.204,-1.021,-0.367s-0.652,-0.326,-0.94,-0.53c-0.326,-0.163,-0.611,-0.411,-0.856,-0.655c-0.288,-0.204,-0.532,-0.49,-0.777,-0.734c-0.244,-0.286,-0.448,-0.571,-0.652,-0.856c-0.165,-0.329,-0.369,-0.655,-0.491,-0.981c-0.163,-0.326,-0.285,-0.652,-0.367,-0.979c-0.122,-0.37,-0.204,-0.696,-0.245,-1.063c-0.04,-0.367,-0.081,-0.734,-0.081,-1.103c0,-0.327,0.041,-0.694,0.081,-1.061c0.041,-0.367,0.123,-0.696,0.245,-1.063c0.082,-0.326,0.204,-0.652,0.367,-0.979s0.326,-0.655,0.532,-0.94c0.204,-0.327,0.408,-0.612,0.652,-0.897c0.245,-0.245,0.489,-0.489,0.777,-0.736c0.244,-0.245,0.53,-0.448,0.856,-0.652c0.288,-0.204,0.614,-0.367,0.94,-0.53s0.695,-0.286,1.063,-0.408c0.326,-0.123,0.695,-0.204,1.063,-0.245c0.367,-0.041,0.733,-0.084,1.104,-0.084c0.366,0,0.733,0.043,1.104,0.084c0.366,0.082,0.733,0.163,1.06,0.285c0.369,0.082,0.695,0.245,1.021,0.408c0.37,0.163,0.655,0.326,0.981,0.571c0.736,0.449,1.511,1.267,2.288,1.267c0.734,-0.041,0.981,-1.267,1.552,-1.959c0.448,-0.53,0.899,-1.022,1.43,-1.511c0.491,-0.448,1.063,-0.856,1.634,-1.226c0.573,-0.367,1.185,-0.693,1.799,-0.979c0.652,-0.286,1.307,-0.489,1.959,-0.693c0.655,-0.166,1.351,-0.288,2.044,-0.329c0.695,-0.082,1.348,-0.082,2.044,-0.041c0.692,0.041,1.389,0.163,2.041,0.288c0.695,0.163,1.348,0.367,1.962,0.653c0.652,0.245,1.267,0.571,1.837,0.896c0.614,0.37,1.145,0.777,1.677,1.226c0.53,0.448,1.02,0.938,1.471,1.47c0.448,0.53,0.855,1.06,1.185,1.674c0.367,0.571,0.693,1.183,0.938,1.837c0.247,0.611,0.451,1.264,0.614,1.96c0.163,0.652,0.245,1.345,0.285,2.041c0.041,0.693,0.041,1.386,0,2.042c-0.448,3.755,-2.614,6.449,-5.759,8.409l-0.614,0.408c2.452,1.755,5.558,1.673,8.784,-3.635C47.867,26.687,48.356,30.32,47.131,32.565ZM48.234,21.623c-0.204,-0.082,-0.326,-0.245,-0.367,-0.449c-0.084,-0.204,-0.125,-0.407,-0.043,-0.612c0.287,-2,0.165,-3.959,-0.408,-5.919c-0.081,-0.37,-0.203,-0.695,-0.326,-1.063c-0.122,-0.326,-0.244,-0.693,-0.367,-1.019c-0.165,-0.37,-0.328,-0.696,-0.491,-1.022c-0.163,-0.326,-0.326,-0.652,-0.53,-0.978c-0.163,-0.329,-0.369,-0.655,-0.573,-0.94c-0.204,-0.326,-0.448,-0.611,-0.652,-0.897c-0.244,-0.329,-0.451,-0.614,-0.736,-0.858C43.495,7.58,43.25,7.295,43.005,7.05c-0.287,-0.285,-0.532,-0.532,-0.817,-0.777s-0.571,-0.489,-0.858,-0.693c-0.286,-0.245,-0.612,-0.448,-0.897,-0.652c-0.328,-0.204,-0.654,-0.41,-0.981,-0.573c-0.285,-0.204,-0.613,-0.367,-0.98,-0.53c-0.326,-0.163,-0.652,-0.327,-0.981,-0.49c-0.366,-0.122,-0.692,-0.244,-1.063,-0.366c-0.366,-0.123,-0.693,-0.245,-1.06,-0.327c-0.37,-0.125,-0.736,-0.206,-1.104,-0.288c-0.369,-0.041,-0.696,-0.123,-1.063,-0.163c-0.408,-0.041,-0.777,-0.082,-1.145,-0.123c-0.366,0,-0.736,-0.041,-1.103,-0.041c-0.367,0,-0.734,0,-1.104,0.041c-0.367,0,-0.734,0.041,-1.104,0.082c-0.367,0.082,-0.734,0.123,-1.104,0.204c-0.367,0.041,-0.734,0.122,-1.101,0.244c-0.37,0.084,-0.695,0.207,-1.063,0.329c-0.37,0.082,-0.696,0.244,-1.063,0.367c-0.326,0.123,-0.655,0.286,-1.022,0.449c-0.326,0.163,-0.652,0.326,-0.98,0.53c-0.326,0.163,-0.612,0.37,-0.938,0.573c-0.328,0.204,-0.614,0.408,-0.899,0.652c-0.326,0.204,-0.613,0.449,-0.899,0.693c-0.244,0.244,-0.53,0.492,-0.815,0.736c-0.369,0.367,-0.654,0.693,-1.31,0.367c-0.326,-0.123,-0.611,-0.245,-0.938,-0.367c-0.329,-0.123,-0.655,-0.204,-0.981,-0.286s-0.654,-0.166,-0.98,-0.247C14.326,6.354,14,6.313,13.671,6.273c-0.326,0,-0.652,-0.041,-1.02,-0.041c-0.328,0,-0.654,0,-0.98,0.041c-0.367,0.041,-0.696,0.082,-1.022,0.122c-0.326,0.082,-0.654,0.123,-0.98,0.207c-0.326,0.122,-0.652,0.204,-0.94,0.326C8.401,7.009,8.075,7.131,7.79,7.295C7.461,7.417,7.176,7.58,6.891,7.743c-0.286,0.163,-0.571,0.326,-0.859,0.53c-0.285,0.207,-0.57,0.37,-0.815,0.614C4.972,9.091,4.725,9.295,4.479,9.54c-0.244,0.245,-0.489,0.489,-0.692,0.734c-0.248,0.247,-0.451,0.492,-0.655,0.777c-0.204,0.285,-0.367,0.53,-0.57,0.815c-0.166,0.285,-0.329,0.614,-0.451,0.899c-0.163,0.285,-0.286,0.611,-0.408,0.897c-0.122,0.326,-0.244,0.655,-0.367,0.981c-0.081,0.326,-0.165,0.652,-0.247,0.978c-0.041,0.326,-0.122,0.656,-0.163,0.981c-0.04,0.326,-0.04,0.652,-0.081,0.979c0,0.367,0,0.695,0.041,1.022c0,0.326,0.04,0.652,0.081,1.019c0.041,0.326,0.122,0.655,0.163,0.981c0.084,0.326,0.166,0.652,0.288,0.978c0.081,0.286,0.204,0.614,0.326,0.94c0.122,0.286,0.285,0.611,0.448,0.897c0.122,0.286,0.288,0.614,0.492,0.9c0.163,0.244,0.366,0.53,0.57,0.815c0.204,0.245,0.408,0.53,0.655,0.775c0.081,0.083,0.163,0.166,0.204,0.288c0.081,0.122,0.081,0.244,0.122,0.367c0,0.122,0,0.244,-0.041,0.366c0,0.163,-0.081,0.245,-0.122,0.367c-0.777,1.634,-1.145,3.309,-1.145,5.104c0,0.245,0,0.488,0.041,0.733c0,0.286,0,0.53,0.041,0.777c0,0.245,0.04,0.489,0.081,0.774c0.041,0.245,0.082,0.489,0.163,0.734c0.041,0.244,0.082,0.491,0.163,0.736c0.082,0.245,0.122,0.489,0.204,0.733c0.081,0.245,0.206,0.489,0.288,0.737c0.081,0.244,0.204,0.448,0.285,0.692c0.122,0.245,0.245,0.448,0.367,0.693c0.122,0.204,0.244,0.408,0.366,0.655c0.166,0.204,0.288,0.407,0.451,0.611c0.123,0.245,0.286,0.448,0.449,0.611c0.163,0.204,0.325,0.407,0.491,0.611c0.163,0.206,0.326,0.369,0.53,0.533c0.163,0.203,0.367,0.366,0.53,0.53c0.206,0.203,0.41,0.366,0.613,0.488c0.204,0.163,0.408,0.327,0.612,0.492c0.206,0.122,0.41,0.285,0.614,0.408c0.244,0.122,0.448,0.285,0.652,0.407c0.247,0.122,0.45,0.204,0.695,0.326c0.244,0.122,0.448,0.204,0.693,0.326c0.247,0.081,0.491,0.163,0.736,0.245c0.244,0.081,0.489,0.165,0.736,0.246c0.244,0.041,0.489,0.123,0.733,0.164c0.245,0.081,0.492,0.122,0.736,0.163c0.245,0.04,0.53,0.081,0.775,0.081c0.247,0.041,0.491,0.041,0.776,0.041c0.245,0.04,0.49,0.04,0.737,0.04c0.285,0,0.529,-0.04,0.774,-0.04c0.244,-0.041,0.491,-0.041,0.777,-0.082c0.244,-0.04,0.489,-0.081,0.733,-0.122c0.247,-0.041,0.492,-0.081,0.777,-0.163c0.081,-0.041,0.204,-0.082,0.326,-0.082c0.163,0,0.288,0,0.41,0.041s0.204,0.082,0.326,0.163c0.081,0.082,0.204,0.163,0.244,0.285c3.229,3.961,7.436,5.553,12.42,4.368s8.007,-4.571,9.069,-9.635c0,-0.122,0,-0.245,0.081,-0.326c0.041,-0.122,0.082,-0.204,0.163,-0.286c0.082,-0.122,0.204,-0.162,0.329,-0.203c0.081,-0.04,0.204,-0.082,0.326,-0.082c4.248,-0.777,7.191,-3.226,8.332,-7.389c0.166,-0.49,0.288,-0.981,0.37,-1.471c0.081,-0.489,0.081,-0.979,0.081,-1.511c0,-0.49,0,-0.979,-0.081,-1.469c-0.082,-0.532,-0.204,-1.021,-0.37,-1.47c-0.122,-0.489,-0.326,-0.94,-0.529,-1.389c-0.245,-0.448,-0.489,-0.897,-0.777,-1.308c-0.285,-0.407,-0.612,-0.815,-0.938,-1.182C49.009,22.278,48.602,21.949,48.234,21.623Z"/></svg>